<svg id="Capa_1" enable-background="new 0 0 512 512" height="512" viewBox="0 0 512 512" width="512" xmlns="http://www.w3.org/2000/svg" xmlns:xlink="http://www.w3.org/1999/xlink"><linearGradient id="SVGID_1_" gradientUnits="userSpaceOnUse" x1="256" x2="256" y1="512" y2="0"><stop offset="0" stop-color="#addcff"/><stop offset=".5028" stop-color="#eaf6ff"/><stop offset="1" stop-color="#eaf6ff"/></linearGradient><linearGradient id="SVGID_2_" gradientUnits="userSpaceOnUse" x1="256" x2="256" y1="371.5" y2="140.5"><stop offset="0" stop-color="#00c0ff"/><stop offset="1" stop-color="#5558ff"/></linearGradient><g><g><g><circle cx="256" cy="256" fill="url(#SVGID_1_)" r="256"/></g></g><g><g><path d="m344.824 140.5c-34.28 0-62.177 27.903-62.177 62.192 0 17.625 7.383 33.55 19.202 44.879l-27.801 38.93c-5.518-2.465-11.623-3.848-18.048-3.848-12.182 0-23.229 4.932-31.26 12.9l-34.203-22.808c2.112-5.172 3.286-10.823 3.286-16.746 0-24.493-19.916-44.423-44.412-44.423-24.495.001-44.411 19.931-44.411 44.424s19.916 44.423 44.412 44.423c12.182 0 23.229-4.932 31.26-12.9l34.203 22.808c-2.112 5.172-3.286 10.823-3.286 16.746 0 24.493 19.916 44.423 44.412 44.423s44.412-19.93 44.412-44.423c0-11.669-4.527-22.295-11.909-30.231l27.796-38.922c8.551 4.437 18.246 6.961 28.525 6.961 34.28 0 62.176-27.903 62.176-62.192s-27.897-62.193-62.177-62.193z" fill="url(#SVGID_2_)"/></g></g></g></svg>